<svg width="48" height="48" viewBox="0 0 48 48" fill="none" xmlns="http://www.w3.org/2000/svg">
<g id="CSS3">
<g id="CSS3_2">
<rect id="Rectangle" width="48" height="48" rx="24" fill="#379AD6"/>
<g id="Group">
<path id="Subtract" fill-rule="evenodd" clip-rule="evenodd" d="M14.7196 37.5011L12.5781 14.3006H35.4219L33.2801 37.5011L23.9999 40L14.7196 37.5011ZM17.1574 21.8136L16.7421 18.9841L31.0714 18.9581L30.8637 21.7617L23.9327 24.695H30.6041L29.8773 33.4432L23.9846 35.0786L18.1958 33.3913L17.8323 29.0561H20.6619L20.8436 31.2627L24.0625 32.1453L27.2295 31.1848L27.4631 27.4986H17.5987L17.417 24.695L24.374 21.7617L17.1574 21.8136Z" fill="white"/>
<path id="path4016" fill-rule="evenodd" clip-rule="evenodd" d="M17.2219 12.2708H20.7476V10.8919H18.733V9.51102H20.7476V8H17.2219V12.2708ZM22.2544 9.51109C22.7261 9.98281 22.9721 10.2085 23.6544 10.8909C23.2556 10.8909 22.2544 10.8924 22.2544 10.8922V12.2708H25.7804V10.8919L24.372 9.51102H25.7804V8H22.2544C22.2544 8 22.2544 8.7584 22.2544 9.51109ZM30.7781 8H27.2519C27.2519 8 27.2519 8.7584 27.2519 9.51109C27.7236 9.98281 27.9697 10.2085 28.652 10.8909C28.2534 10.8909 27.2519 10.8924 27.2519 10.8922V12.2708H30.7781V10.8919L29.3696 9.51102H30.7781V8Z" fill="white"/>
</g>
</g>
</g>
</svg>
