<svg width="48" height="48" viewBox="0 0 48 48" fill="none" xmlns="http://www.w3.org/2000/svg">
<g id="HTML5">
<g id="HTML5_2">
<rect id="Rectangle" width="48" height="48" rx="24" fill="#E44D26"/>
<g id="Group">
<path id="Subtract" fill-rule="evenodd" clip-rule="evenodd" d="M12.6625 14.2875L14.725 37.4375L23.9813 40L33.275 37.425L35.3375 14.2875H12.6625ZM16.875 19.0187H24V19.0188H31.1L30.8375 21.8563H23.9875V21.8562H19.9875L20.25 24.7625H24V24.7625H30.5813L29.8 33.475L24 35.084V35.1L18.175 33.475L17.775 29.0187H20.625L20.825 31.2875L23.9938 32.1358L27.1563 31.2875L27.4875 27.6H23.9875V27.5938H17.65L16.875 19.0187Z" fill="white"/>
<path id="Vector" d="M14.775 8H16.2125V9.425H17.5375V8H18.975V12.3125H17.5375V10.875H16.225V12.3125H14.775V8ZM20.875 9.4375H19.6063V8H23.5875V9.4375H22.3125V12.3125H20.875V9.4375ZM24.2188 8H25.725L26.65 9.51875L27.575 8H29.0813V12.3125H27.6438V10.175L26.6375 11.725L25.6313 10.175V12.3125H24.2188V8ZM29.7938 8H31.2313V10.8875H33.2688V12.3125H29.7938" fill="white"/>
</g>
</g>
</g>
</svg>
